<svg xmlns="http://www.w3.org/2000/svg" width="799.938" height="720" viewBox="0 0 799.938 720">
  <metadata><?xpacket begin="﻿" id="W5M0MpCehiHzreSzNTczkc9d"?>
<x:xmpmeta xmlns:x="adobe:ns:meta/" x:xmptk="Adobe XMP Core 5.6-c142 79.160924, 2017/07/13-01:06:39        ">
   <rdf:RDF xmlns:rdf="http://www.w3.org/1999/02/22-rdf-syntax-ns#">
      <rdf:Description rdf:about=""/>
   </rdf:RDF>
</x:xmpmeta>
                                                                                                    
                                                                                                    
                                                                                                    
                                                                                                    
                                                                                                    
                                                                                                    
                                                                                                    
                                                                                                    
                                                                                                    
                                                                                                    
                                                                                                    
                                                                                                    
                                                                                                    
                                                                                                    
                                                                                                    
                                                                                                    
                                                                                                    
                                                                                                    
                                                                                                    
                                                                                                    
                           
<?xpacket end="w"?></metadata>
<defs>
    <style>
      .cls-1 {
        fill-rule: evenodd;
      }
    </style>
  </defs>
  <path class="cls-1" fill="#fff" d="M782.841,103.148H148.6a16.3,16.3,0,0,0-3.515.719l-25.8-85.621a19,19,0,0,0-1.32-2.466A16.981,16.981,0,0,0,101.1,0h-0.069l-83.924.357a17.143,17.143,0,0,0,.069,34.286h0.069l71.086-.309,164.1,544.378a81.349,81.349,0,1,0,129.109,27.056h236.9a81.324,81.324,0,1,0,28.4-34.267H353.118a78.726,78.726,0,0,0-70.179-10.214L258.46,480.1l431.868-.344a16.947,16.947,0,0,0,16.045-11.79,16.281,16.281,0,0,0,1.561-3.358l91.415-336.966a16.686,16.686,0,0,0,.411-6.356c0.016-.36.205-0.65,0.205-0.994A17.119,17.119,0,0,0,782.841,103.148ZM692.848,591.479A47.121,47.121,0,1,1,645.707,638.6,47.17,47.17,0,0,1,692.848,591.479Zm-385.686,0A47.121,47.121,0,1,1,260.023,638.6,47.168,47.168,0,0,1,307.162,591.479ZM677.61,445.509l-429.449.344L155.2,137.433h605.99Z" transform="translate(-0.031)"/>
</svg>
